<svg version="1.1" id="Layer_1" xmlns="http://www.w3.org/2000/svg"
	xmlns:xlink="http://www.w3.org/1999/xlink" x="0px" y="0px"
	className="logo-svg"
	width="100%" viewBox="0 0 780 480" enable-background="new 0 0 780 480" xml:space="preserve">
	 <text x="0" y="300" 
        font-family="var(--font-bauhaus)" 
        font-size="200" 
        font-weight="normal" 
        fill="#000" 
		className="logo-text"
        text-anchor="start">Frii</text>
<path  transform="translate(-100)"  fill="#000000" opacity="1.000000" stroke="none" 
	d="
M430.700714,133.893356 
	C430.359467,125.436554 429.961487,117.455215 429.692230,109.469536 
	C429.479034,103.145508 431.122101,97.617027 437.146942,94.253479 
	C434.083862,91.936615 432.203461,89.117523 430.985138,85.952744 
	C432.214661,83.623047 434.732452,84.628136 436.331787,83.558258 
	C435.531433,82.033379 434.208374,82.441498 433.128418,82.338493 
	C430.125549,82.052063 428.552399,80.499008 428.663208,77.458649 
	C428.774445,74.404259 428.583832,71.464989 426.596466,68.917717 
	C425.742432,67.823105 426.360229,66.806931 426.787201,65.675209 
	C429.829742,57.611023 428.848907,55.803810 420.785004,53.147858 
	C417.351349,52.016930 413.144470,52.049545 410.978638,47.695576 
	C414.317810,45.849705 417.678741,46.682060 420.844421,46.834454 
	C428.265930,47.191723 434.248291,46.009209 436.810822,37.535149 
	C438.225616,32.856667 442.175415,31.485378 446.497772,33.811523 
	C451.910522,36.724499 458.261902,37.857079 462.825012,42.480778 
	C463.701447,43.368870 465.689423,43.099113 467.122894,43.509342 
	C472.215942,44.966873 474.821716,49.221912 472.404358,53.855663 
	C469.284180,59.836575 470.429047,64.596626 474.358032,69.439758 
	C475.528473,70.882492 477.171936,72.474655 475.746521,75.238708 
	C469.904297,72.203812 466.594177,76.685295 462.810730,79.878571 
	C460.792114,81.582321 460.875122,83.610573 463.102783,84.751755 
	C467.822357,87.169487 472.206726,88.400139 474.973999,82.511749 
	C478.231873,75.579369 483.801697,73.934158 490.496765,74.050758 
	C495.655182,74.140610 501.011292,73.777878 505.912384,75.040955 
	C512.334412,76.696007 519.429993,78.067261 520.702515,87.049088 
	C521.349304,91.614456 525.044861,95.204353 527.736572,99.012672 
	C528.580750,100.207085 529.772949,101.464165 528.488037,103.021492 
	C527.222412,104.555489 525.927307,103.938789 524.571899,102.966225 
	C522.866516,101.742569 521.237244,102.662094 520.066040,103.790054 
	C518.584717,105.216682 519.810974,106.586281 520.875610,107.637451 
	C523.829102,110.553421 523.484253,113.801628 522.255737,117.343063 
	C518.947632,126.879456 515.524780,136.426056 514.807007,146.592300 
	C514.399292,152.367523 516.037231,158.135803 515.279053,163.982452 
	C515.177673,164.764175 516.562317,165.770493 517.312378,166.625809 
	C524.992981,175.384521 524.038147,186.377243 514.629944,193.054321 
	C510.834595,195.747925 511.632660,199.341980 511.310242,202.888229 
	C511.174133,204.385452 511.985413,206.633072 509.506836,206.847214 
	C507.530365,207.018005 507.376160,205.050339 507.000305,203.659805 
	C506.587769,202.133759 506.263123,200.818344 504.173584,200.898819 
	C502.389160,200.967575 501.639771,199.384811 501.066132,198.041412 
	C500.447327,196.592194 499.637512,195.589462 498.211792,194.798157 
	C486.527008,188.312531 485.193054,184.114578 491.044128,172.432648 
	C488.724640,173.048370 489.173218,176.382019 486.612244,176.679321 
	C484.668854,175.067474 485.337402,172.407684 483.474762,169.056290 
	C483.816833,172.810226 483.614594,175.258255 484.315063,177.412827 
	C486.520050,184.195099 485.476440,191.063583 485.357178,197.916473 
	C485.307190,200.787079 483.677856,202.372589 481.173309,203.531616 
	C475.535767,206.140518 469.371094,205.165970 463.555389,206.520187 
	C469.285309,207.189331 475.016113,206.443649 480.777557,205.671173 
	C480.981293,206.576675 481.323700,207.174408 481.150604,207.462738 
	C474.979492,217.743118 477.288208,228.236115 480.015472,238.883926 
	C482.118195,247.093369 483.967957,255.435760 483.363800,264.004486 
	C483.155609,266.957245 484.660187,268.899384 486.473328,270.411865 
	C489.748138,273.143555 492.391724,276.512634 496.082306,278.868744 
	C500.916199,281.954742 503.953857,286.888397 507.374023,291.424561 
	C512.954041,298.825317 518.439575,306.429047 527.601868,310.008087 
	C528.812622,310.481079 529.869202,311.405762 530.920715,312.219940 
	C535.946716,316.111328 535.664490,322.188812 529.860229,325.011444 
	C526.834045,326.483093 525.313660,328.484711 524.025391,331.303131 
	C521.004700,337.912048 509.667786,343.400940 502.613495,341.819885 
	C500.844666,341.423462 499.694977,340.327057 499.656830,338.438507 
	C499.771210,338.202637 499.821838,337.939178 499.918854,337.920776 
	C508.233124,336.345062 507.844513,329.003265 509.421265,323.171906 
	C510.147034,320.487823 508.301666,318.151184 506.425995,316.120544 
	C497.931458,306.924103 489.051544,298.205261 477.644104,292.432281 
	C476.362640,293.228027 474.993774,294.173065 473.540924,294.963715 
	C467.653076,298.167877 466.656555,297.809631 464.303497,291.738220 
	C463.940857,290.802429 463.690582,289.765869 462.674835,289.338165 
	C454.216370,285.776245 452.617950,277.805695 451.002502,270.249603 
	C449.328186,262.418304 447.382019,255.078156 440.522766,249.987671 
	C437.409698,247.677338 436.481750,243.984802 435.489990,240.443176 
	C435.661133,247.047333 438.727875,252.453873 443.178009,257.013184 
	C445.541321,259.434509 446.368835,261.512421 444.406525,264.390289 
	C442.798309,266.748901 443.302002,268.949829 444.552917,271.398682 
	C452.820404,287.583191 462.065552,303.199738 471.641174,318.630920 
	C475.351044,324.609375 477.882385,331.132660 480.371704,337.678802 
	C481.527222,340.717468 481.718475,342.994690 477.821747,344.240570 
	C474.212830,345.394470 473.115753,343.693085 472.204224,340.727448 
	C466.361847,321.719696 455.920532,305.066162 445.451355,288.402771 
	C442.020844,282.942505 439.279846,277.049042 435.953522,271.404816 
	C437.051544,276.135193 439.393127,280.609650 434.583649,285.077698 
	C433.193146,286.369476 434.439270,290.429596 434.361877,293.217377 
	C434.101807,302.588501 433.078033,311.768250 428.652771,320.311584 
	C426.824402,323.841309 430.049957,327.143555 429.942413,330.693726 
	C429.855286,333.568787 433.572876,336.648560 430.933990,338.997742 
	C427.715820,341.862610 423.025574,343.318146 418.794769,342.471619 
	C415.151123,341.742615 411.952606,342.399658 408.537598,342.821503 
	C402.749573,343.536438 396.929901,344.075958 391.207642,342.340790 
	C389.043976,341.684753 387.000549,340.522125 386.949158,338.028076 
	C386.896423,335.468933 389.344238,335.029144 391.180511,334.501923 
	C398.284302,332.462189 404.883453,329.947845 410.178162,324.181702 
	C413.183044,320.909302 414.477753,317.533386 414.569427,313.540955 
	C414.760651,305.213440 414.643951,296.878418 414.615295,288.546631 
	C414.609039,286.719543 414.538513,285.060425 412.428101,283.970154 
	C408.110260,281.739532 407.814667,277.362305 409.650574,274.021027 
	C412.210663,269.361664 411.229797,264.355164 412.012787,259.674561 
	C412.964355,253.986191 413.527557,248.153748 415.344513,242.685104 
	C416.259277,239.931778 416.119507,237.898911 414.636627,235.740158 
	C410.642273,229.925247 407.802185,223.558823 405.445618,216.944366 
	C403.872467,212.528839 400.623138,209.925323 396.252228,208.464981 
	C391.668304,206.933426 389.507263,203.929153 390.580444,198.896591 
	C392.002441,192.228241 388.896332,185.697678 382.863708,182.252319 
	C378.960815,180.023270 375.051605,177.805023 371.167786,175.543167 
	C370.468811,175.136093 369.737885,174.638260 369.842194,173.362610 
	C372.999847,171.961166 375.946075,175.681732 379.700195,173.898911 
	C374.331482,162.735184 372.160065,149.946060 360.807678,142.454147 
	C357.564240,140.313629 358.591064,138.330017 361.408051,136.893799 
	C365.348785,134.884674 368.878540,135.899582 371.795990,139.012863 
	C373.396210,140.720490 374.572876,142.773300 375.288330,145.023590 
	C379.752594,159.065262 387.102692,171.810120 393.313507,185.063156 
	C396.688263,192.264511 397.084045,191.557938 402.904785,186.103745 
	C408.545593,180.818268 412.118561,173.466125 418.429077,169.374313 
	C426.504852,164.137924 428.971222,157.014557 429.456238,148.285934 
	C429.714539,143.637604 430.275299,139.006058 430.700714,133.893356 
M419.546173,228.483597 
	C424.120056,222.465744 426.172424,215.206146 429.306427,208.485931 
	C431.477936,203.829681 433.791718,199.020523 433.620514,193.776199 
	C433.439392,188.228195 435.598145,184.948013 440.558716,182.428970 
	C446.808533,179.255219 451.768921,174.449966 454.139221,167.538864 
	C450.491577,172.361115 446.046478,176.222412 440.662140,178.984756 
	C431.162109,183.858566 421.887177,189.037399 414.962128,197.492371 
	C414.553223,197.991562 413.977631,198.398651 413.404999,198.712463 
	C407.071960,202.183426 405.696655,206.487183 408.966705,212.823517 
	C411.798950,218.311447 415.414612,223.288956 419.546173,228.483597 
M458.389038,112.892273 
	C457.557526,118.773796 456.245026,124.609131 456.476898,130.592773 
	C458.925140,117.038971 461.875977,110.306854 457.791656,102.316154 
	C458.423859,105.808449 458.926971,108.909920 458.389038,112.892273 
M502.136658,164.643250 
	C499.758331,165.422684 497.180634,165.818344 495.561646,168.159149 
	C499.441498,166.017807 503.658295,165.442383 508.562286,165.588577 
	C506.415741,163.879898 504.593018,164.547379 502.136658,164.643250 
z"/>



 	 <text x="420" y="300" 
        font-family="var(--font-bauhaus)" 
        font-size="200" 
        font-weight="normal" 
        fill="#000" 
        text-anchor="start">Goo</text>

</svg>