<svg xmlns="http://www.w3.org/2000/svg" version="1.1" viewBox="-5.0 -10.0 110.0 135.0">
    <g>
        <path
            d="m54.602 38.199-2.6016 1.3008 7.5 3.8984c1.8984-0.89844 3.6016-1.8008 5.3008-2.6992l-7.8008-2.6992c-0.80078-0.19922-1.6016-0.10156-2.3984 0.19922z" />
        <path
            d="m78 34.602c-5.6016-10.602-16.5-17.102-28.602-17.102-17.898 0-32.5 14.602-32.5 32.5 0 7.1016 2.3984 14.102 6.6992 19.699 5.6016-1.6016 12.5-4.5 19.301-8.1016 0.60156-0.30078 1.3008-0.10156 1.6016 0.5 0.30078 0.60156 0.10156 1.3008-0.5 1.6016-6.6016 3.5-13.199 6.3008-18.801 8 6.1992 6.8984 14.898 10.898 24.301 10.898 17.898 0 32.5-14.602 32.5-32.5 0-1.1992-0.10156-2.3984-0.19922-3.6016-2.1016 1.1016-4.5 2.1992-7.3008 3.5l-4.8984 11.699c-0.5 1.1992-1.3984 2.1016-2.6016 2.6992l-5 2.3047c-0.19922 0.10156-0.30078 0.10156-0.5 0.10156-0.30078 0-0.5-0.10156-0.69922-0.30078-0.30078-0.30078-0.5-0.69922-0.39844-1.1016l2.3984-10.602c-3.6016 1.5-6.8984 2.8008-9.8008 3.8984l-1.1992 0.5c-0.39844 0.10156-1.3008 0.5-2.3008 0.5-0.5 0-1.1016-0.10156-1.6992-0.30078-1.6992-0.69922-10.801-8.6016-9.8984-11.602 0.10156-0.39844 0.39844-0.69922 0.80078-0.89844 1.1016-0.5 3 0.19922 7.1016 1.8984 0.60156 0.30078 1.3984 0.60156 1.8008 0.80078 3.1992-1.6992 6.3008-3.3984 9.3008-4.8984l-8.1016-4.1992c-0.39844-0.19922-0.60156-0.60156-0.60156-1 0-0.39844 0.30078-0.80078 0.60156-1l4.6992-2.3008c1.3008-0.60156 2.6992-0.69922 4-0.30078l10 3.3984c2.9961-1.3945 7.0977-3.293 10.496-4.6914z" />
        <path
            d="m88.5 36.102-5 2.3984c-0.19922 0.10156-0.30078 0.10156-0.5 0.10156-0.39844 0-0.80078-0.30078-1-0.69922-0.30078-0.60156 0-1.3008 0.5-1.5l2.6992-1.3008c-0.80078 0-1.5 0-2.1016 0.10156-0.60156 0.10156-1.6992 0.5-3.1016 1-2.8008 1.1016-6.8984 2.8984-11.898 5.3008-2.5 1.1992-5.3008 2.6016-8.3008 4.1016-3.6016 1.8008-7.5 3.8984-11.602 6.1016-0.60156 0.30078-1.1016 0.19922-3.3984-0.89844-1.1016-0.5-3.1992-1.3984-4.5-1.8008 1.3008 2.1992 6.6992 7.5 8.1992 8.1016 0.89844 0.39844 1.8984 0 2.3008-0.19922l1.1992-0.5c3.1992-1.3008 7.1016-2.8008 11.199-4.5l0.80078-3.5c0.10156-0.60156 0.80078-1 1.3984-0.80078 0.60156 0.10156 1 0.80078 0.80078 1.3984l-3.3984 14.5 2.6992-1.3008c0.69922-0.30078 1.1992-0.89844 1.5-1.6016l5.1016-12.102 2.1992-5.1992c0.30078-0.60156 0.89844-0.80078 1.5-0.60156s0.89844 0.89844 0.60156 1.5l-1 2.3984c15-7 14.398-9.3984 14.398-9.5 0.10156-0.10156-0.49609-0.60156-1.2969-1z" />
        <path
            d="m10.398 71.398c0.69922 1.3984 2.3984 2.1016 5.1016 2.1016 0.89844 0 2-0.10156 3.1992-0.30078s2.6016-0.5 4.1016-0.89844c-0.19922-0.19922-0.30078-0.39844-0.5-0.60156-0.39844-0.5-0.69922-0.89844-1.1016-1.3984-1.1016 0.30078-2.1016 0.5-2.8984 0.60156-3.8008 0.60156-5.5 0.10156-5.8984-0.60156-0.30078-0.69922 0.19922-2.3008 2.6992-5 0.39844-0.5 0.39844-1.1992-0.10156-1.6016-0.5-0.39844-1.1992-0.39844-1.6016 0.10156-3 3.0977-4 5.6992-3 7.5977z" />
    </g>

</svg>