<svg version="1.1" id="Layer_1" xmlns="http://www.w3.org/2000/svg"
    xmlns:xlink="http://www.w3.org/1999/xlink" x="0px" y="0px"
    width="100%" viewBox="0 0 608 480" enable-background="new 0 0 608 480" xml:space="preserve">
<path fill="#000000" opacity="1.000000" stroke="none" 
	d="
M430.700714,133.893356 
	C430.359467,125.436554 429.961487,117.455215 429.692230,109.469536 
	C429.479034,103.145508 431.122101,97.617027 437.146942,94.253479 
	C434.083862,91.936615 432.203461,89.117523 430.985138,85.952744 
	C432.214661,83.623047 434.732452,84.628136 436.331787,83.558258 
	C435.531433,82.033379 434.208374,82.441498 433.128418,82.338493 
	C430.125549,82.052063 428.552399,80.499008 428.663208,77.458649 
	C428.774445,74.404259 428.583832,71.464989 426.596466,68.917717 
	C425.742432,67.823105 426.360229,66.806931 426.787201,65.675209 
	C429.829742,57.611023 428.848907,55.803810 420.785004,53.147858 
	C417.351349,52.016930 413.144470,52.049545 410.978638,47.695576 
	C414.317810,45.849705 417.678741,46.682060 420.844421,46.834454 
	C428.265930,47.191723 434.248291,46.009209 436.810822,37.535149 
	C438.225616,32.856667 442.175415,31.485378 446.497772,33.811523 
	C451.910522,36.724499 458.261902,37.857079 462.825012,42.480778 
	C463.701447,43.368870 465.689423,43.099113 467.122894,43.509342 
	C472.215942,44.966873 474.821716,49.221912 472.404358,53.855663 
	C469.284180,59.836575 470.429047,64.596626 474.358032,69.439758 
	C475.528473,70.882492 477.171936,72.474655 475.746521,75.238708 
	C469.904297,72.203812 466.594177,76.685295 462.810730,79.878571 
	C460.792114,81.582321 460.875122,83.610573 463.102783,84.751755 
	C467.822357,87.169487 472.206726,88.400139 474.973999,82.511749 
	C478.231873,75.579369 483.801697,73.934158 490.496765,74.050758 
	C495.655182,74.140610 501.011292,73.777878 505.912384,75.040955 
	C512.334412,76.696007 519.429993,78.067261 520.702515,87.049088 
	C521.349304,91.614456 525.044861,95.204353 527.736572,99.012672 
	C528.580750,100.207085 529.772949,101.464165 528.488037,103.021492 
	C527.222412,104.555489 525.927307,103.938789 524.571899,102.966225 
	C522.866516,101.742569 521.237244,102.662094 520.066040,103.790054 
	C518.584717,105.216682 519.810974,106.586281 520.875610,107.637451 
	C523.829102,110.553421 523.484253,113.801628 522.255737,117.343063 
	C518.947632,126.879456 515.524780,136.426056 514.807007,146.592300 
	C514.399292,152.367523 516.037231,158.135803 515.279053,163.982452 
	C515.177673,164.764175 516.562317,165.770493 517.312378,166.625809 
	C524.992981,175.384521 524.038147,186.377243 514.629944,193.054321 
	C510.834595,195.747925 511.632660,199.341980 511.310242,202.888229 
	C511.174133,204.385452 511.985413,206.633072 509.506836,206.847214 
	C507.530365,207.018005 507.376160,205.050339 507.000305,203.659805 
	C506.587769,202.133759 506.263123,200.818344 504.173584,200.898819 
	C502.389160,200.967575 501.639771,199.384811 501.066132,198.041412 
	C500.447327,196.592194 499.637512,195.589462 498.211792,194.798157 
	C486.527008,188.312531 485.193054,184.114578 491.044128,172.432648 
	C488.724640,173.048370 489.173218,176.382019 486.612244,176.679321 
	C484.668854,175.067474 485.337402,172.407684 483.474762,169.056290 
	C483.816833,172.810226 483.614594,175.258255 484.315063,177.412827 
	C486.520050,184.195099 485.476440,191.063583 485.357178,197.916473 
	C485.307190,200.787079 483.677856,202.372589 481.173309,203.531616 
	C475.535767,206.140518 469.371094,205.165970 463.555389,206.520187 
	C469.285309,207.189331 475.016113,206.443649 480.777557,205.671173 
	C480.981293,206.576675 481.323700,207.174408 481.150604,207.462738 
	C474.979492,217.743118 477.288208,228.236115 480.015472,238.883926 
	C482.118195,247.093369 483.967957,255.435760 483.363800,264.004486 
	C483.155609,266.957245 484.660187,268.899384 486.473328,270.411865 
	C489.748138,273.143555 492.391724,276.512634 496.082306,278.868744 
	C500.916199,281.954742 503.953857,286.888397 507.374023,291.424561 
	C512.954041,298.825317 518.439575,306.429047 527.601868,310.008087 
	C528.812622,310.481079 529.869202,311.405762 530.920715,312.219940 
	C535.946716,316.111328 535.664490,322.188812 529.860229,325.011444 
	C526.834045,326.483093 525.313660,328.484711 524.025391,331.303131 
	C521.004700,337.912048 509.667786,343.400940 502.613495,341.819885 
	C500.844666,341.423462 499.694977,340.327057 499.656830,338.438507 
	C499.771210,338.202637 499.821838,337.939178 499.918854,337.920776 
	C508.233124,336.345062 507.844513,329.003265 509.421265,323.171906 
	C510.147034,320.487823 508.301666,318.151184 506.425995,316.120544 
	C497.931458,306.924103 489.051544,298.205261 477.644104,292.432281 
	C476.362640,293.228027 474.993774,294.173065 473.540924,294.963715 
	C467.653076,298.167877 466.656555,297.809631 464.303497,291.738220 
	C463.940857,290.802429 463.690582,289.765869 462.674835,289.338165 
	C454.216370,285.776245 452.617950,277.805695 451.002502,270.249603 
	C449.328186,262.418304 447.382019,255.078156 440.522766,249.987671 
	C437.409698,247.677338 436.481750,243.984802 435.489990,240.443176 
	C435.661133,247.047333 438.727875,252.453873 443.178009,257.013184 
	C445.541321,259.434509 446.368835,261.512421 444.406525,264.390289 
	C442.798309,266.748901 443.302002,268.949829 444.552917,271.398682 
	C452.820404,287.583191 462.065552,303.199738 471.641174,318.630920 
	C475.351044,324.609375 477.882385,331.132660 480.371704,337.678802 
	C481.527222,340.717468 481.718475,342.994690 477.821747,344.240570 
	C474.212830,345.394470 473.115753,343.693085 472.204224,340.727448 
	C466.361847,321.719696 455.920532,305.066162 445.451355,288.402771 
	C442.020844,282.942505 439.279846,277.049042 435.953522,271.404816 
	C437.051544,276.135193 439.393127,280.609650 434.583649,285.077698 
	C433.193146,286.369476 434.439270,290.429596 434.361877,293.217377 
	C434.101807,302.588501 433.078033,311.768250 428.652771,320.311584 
	C426.824402,323.841309 430.049957,327.143555 429.942413,330.693726 
	C429.855286,333.568787 433.572876,336.648560 430.933990,338.997742 
	C427.715820,341.862610 423.025574,343.318146 418.794769,342.471619 
	C415.151123,341.742615 411.952606,342.399658 408.537598,342.821503 
	C402.749573,343.536438 396.929901,344.075958 391.207642,342.340790 
	C389.043976,341.684753 387.000549,340.522125 386.949158,338.028076 
	C386.896423,335.468933 389.344238,335.029144 391.180511,334.501923 
	C398.284302,332.462189 404.883453,329.947845 410.178162,324.181702 
	C413.183044,320.909302 414.477753,317.533386 414.569427,313.540955 
	C414.760651,305.213440 414.643951,296.878418 414.615295,288.546631 
	C414.609039,286.719543 414.538513,285.060425 412.428101,283.970154 
	C408.110260,281.739532 407.814667,277.362305 409.650574,274.021027 
	C412.210663,269.361664 411.229797,264.355164 412.012787,259.674561 
	C412.964355,253.986191 413.527557,248.153748 415.344513,242.685104 
	C416.259277,239.931778 416.119507,237.898911 414.636627,235.740158 
	C410.642273,229.925247 407.802185,223.558823 405.445618,216.944366 
	C403.872467,212.528839 400.623138,209.925323 396.252228,208.464981 
	C391.668304,206.933426 389.507263,203.929153 390.580444,198.896591 
	C392.002441,192.228241 388.896332,185.697678 382.863708,182.252319 
	C378.960815,180.023270 375.051605,177.805023 371.167786,175.543167 
	C370.468811,175.136093 369.737885,174.638260 369.842194,173.362610 
	C372.999847,171.961166 375.946075,175.681732 379.700195,173.898911 
	C374.331482,162.735184 372.160065,149.946060 360.807678,142.454147 
	C357.564240,140.313629 358.591064,138.330017 361.408051,136.893799 
	C365.348785,134.884674 368.878540,135.899582 371.795990,139.012863 
	C373.396210,140.720490 374.572876,142.773300 375.288330,145.023590 
	C379.752594,159.065262 387.102692,171.810120 393.313507,185.063156 
	C396.688263,192.264511 397.084045,191.557938 402.904785,186.103745 
	C408.545593,180.818268 412.118561,173.466125 418.429077,169.374313 
	C426.504852,164.137924 428.971222,157.014557 429.456238,148.285934 
	C429.714539,143.637604 430.275299,139.006058 430.700714,133.893356 
M419.546173,228.483597 
	C424.120056,222.465744 426.172424,215.206146 429.306427,208.485931 
	C431.477936,203.829681 433.791718,199.020523 433.620514,193.776199 
	C433.439392,188.228195 435.598145,184.948013 440.558716,182.428970 
	C446.808533,179.255219 451.768921,174.449966 454.139221,167.538864 
	C450.491577,172.361115 446.046478,176.222412 440.662140,178.984756 
	C431.162109,183.858566 421.887177,189.037399 414.962128,197.492371 
	C414.553223,197.991562 413.977631,198.398651 413.404999,198.712463 
	C407.071960,202.183426 405.696655,206.487183 408.966705,212.823517 
	C411.798950,218.311447 415.414612,223.288956 419.546173,228.483597 
M458.389038,112.892273 
	C457.557526,118.773796 456.245026,124.609131 456.476898,130.592773 
	C458.925140,117.038971 461.875977,110.306854 457.791656,102.316154 
	C458.423859,105.808449 458.926971,108.909920 458.389038,112.892273 
M502.136658,164.643250 
	C499.758331,165.422684 497.180634,165.818344 495.561646,168.159149 
	C499.441498,166.017807 503.658295,165.442383 508.562286,165.588577 
	C506.415741,163.879898 504.593018,164.547379 502.136658,164.643250 
z"/>
<path fill="#000000" opacity="1.000000" stroke="none" 
	d="
M66.632675,431.190857 
	C52.750179,431.623932 52.751171,431.623932 52.752041,418.517609 
	C52.753407,397.874512 52.787151,377.231323 52.726501,356.588409 
	C52.713688,352.227509 53.184475,347.930695 54.224945,343.743469 
	C58.204006,327.730103 69.874718,318.697937 86.414841,318.652435 
	C91.908485,318.637299 97.404816,318.766388 102.894966,318.630066 
	C106.076813,318.551056 107.587631,319.755188 107.296509,322.995270 
	C107.252037,323.490204 107.300285,323.993469 107.305496,324.492859 
	C107.387619,332.356049 107.386253,332.261292 99.360603,332.376465 
	C93.894012,332.454895 88.403328,331.790314 82.967247,333.209503 
	C74.675064,335.374390 69.970779,340.478790 69.345215,348.912659 
	C68.988892,353.716583 69.223938,358.561523 69.049103,363.382782 
	C68.930222,366.661133 70.430946,367.724670 73.573105,367.685791 
	C82.894279,367.570496 92.222565,367.828278 101.538490,367.580353 
	C105.794762,367.467072 107.481087,368.707123 107.390282,373.194000 
	C107.225319,381.345520 107.460373,381.350067 99.208405,381.348022 
	C91.051056,381.345947 82.887245,381.536987 74.738976,381.264099 
	C70.433372,381.119904 68.862083,382.461517 68.950630,386.917511 
	C69.201920,399.564819 69.085274,412.220428 69.012146,424.872162 
	C68.999435,427.070038 69.751625,429.661102 66.632675,431.190857 
z"/>
<path fill="#000000" opacity="1.000000" stroke="none" 
	d="
M315.730225,324.327362 
	C284.656464,319.311890 258.205933,341.190247 257.121155,372.419373 
	C256.242096,397.724945 270.994446,418.895569 293.848267,424.987366 
	C320.200409,432.011597 348.469513,415.907532 353.638885,384.234497 
	C354.308685,380.130798 353.245422,378.151520 348.484406,378.256805 
	C335.830353,378.536621 323.165863,378.381104 310.505951,378.316223 
	C308.667480,378.306763 306.227692,378.980072 305.803986,375.993500 
	C305.458252,373.556244 305.882507,371.686096 309.004944,371.691467 
	C325.662720,371.720154 342.320618,371.714752 358.978394,371.686310 
	C361.664673,371.681732 362.325134,373.160950 362.300171,375.517975 
	C361.939362,409.609802 337.347656,432.225830 308.194733,433.415253 
	C274.598877,434.785919 246.968399,405.969910 248.752243,371.193909 
	C250.525879,336.617401 282.247070,311.572632 316.624268,317.395538 
	C327.369965,319.215698 337.227112,322.630768 345.600281,329.739166 
	C350.668976,334.042236 350.599152,334.990631 344.721008,340.029938 
	C336.930878,331.863281 327.512146,326.265289 315.730225,324.327362 
z"/>
<path fill="#000000" opacity="1.000000" stroke="none" 
	d="
M512.534363,354.050903 
	C530.386108,360.494598 541.757568,376.682343 540.749512,393.809326 
	C539.551575,414.161926 528.216858,428.281952 509.523895,432.708008 
	C490.953278,437.105133 471.744080,425.631073 464.962433,406.090607 
	C456.958649,383.028839 471.005157,358.016052 494.865631,353.165192 
	C500.596069,352.000214 506.449585,352.237793 512.534363,354.050903 
M522.009949,418.526733 
	C531.410339,409.905548 534.314453,399.103699 532.661560,386.775696 
	C530.262573,368.882904 511.917725,355.872772 494.684265,360.489838 
	C481.163391,364.112366 473.695892,373.761841 470.835419,387.291290 
	C468.137878,400.049957 474.921143,415.306152 486.683411,422.457184 
	C497.587769,429.086578 510.681824,427.793243 522.009949,418.526733 
z"/>
<path fill="#000000" opacity="1.000000" stroke="none" 
	d="
M377.934509,410.854431 
	C368.949402,389.432617 376.395355,366.595795 395.304565,356.757629 
	C418.583710,344.645874 448.032715,360.197388 451.241272,386.296844 
	C454.075165,409.348785 441.627380,427.904999 420.086517,432.739990 
	C403.444794,436.475311 386.892792,427.987335 377.934509,410.854431 
M381.344086,390.805084 
	C380.991028,395.524811 381.816711,400.085358 383.288116,404.539429 
	C388.210388,419.439758 403.872375,429.162384 417.867493,426.035553 
	C438.191406,421.494690 449.535126,400.274750 442.053894,380.791626 
	C433.982361,359.771240 410.155975,352.956604 393.198212,366.962158 
	C386.056000,372.860962 382.615265,380.881012 381.344086,390.805084 
z"/>
<path fill="#000000" opacity="1.000000" stroke="none" 
	d="
M117.449982,428.366821 
	C117.341766,405.703369 117.164215,383.440491 117.210709,361.178101 
	C117.216324,358.487823 115.295921,354.409851 120.427444,353.704254 
	C128.612915,352.578735 131.001801,353.527618 132.969147,359.175201 
	C138.058655,353.933716 144.136398,351.547913 151.282196,351.591156 
	C154.815781,351.612549 156.653091,352.575684 156.290131,356.394958 
	C156.102036,358.374451 156.242554,360.383240 156.175568,362.376801 
	C156.118103,364.086487 155.368225,365.210480 153.485687,365.290161 
	C136.149689,366.023987 132.931671,379.480377 132.439590,392.625122 
	C132.023010,403.752869 132.209885,414.911163 132.420670,426.050415 
	C132.499847,430.234192 130.887726,432.123108 126.914360,431.274567 
	C123.737801,430.596222 119.441689,433.855957 117.449982,428.366821 
z"/>
<path fill="#000000" opacity="1.000000" stroke="none" 
	d="
M185.285263,384.000061 
	C185.279327,398.325928 185.154633,412.153351 185.339462,425.976654 
	C185.394730,430.110260 183.991135,431.528809 179.865494,431.411713 
	C169.030914,431.104156 169.875549,432.596558 169.856857,421.493988 
	C169.822357,401.005096 169.982056,380.514282 169.726776,360.028473 
	C169.663300,354.934174 171.300766,352.930695 176.311813,353.631378 
	C177.619019,353.814117 178.982498,353.762451 180.304031,353.641998 
	C183.922333,353.312073 185.397324,354.811859 185.326218,358.514557 
	C185.166382,366.840271 185.281723,375.171204 185.285263,384.000061 
z"/>
<path fill="#000000" opacity="1.000000" stroke="none" 
	d="
M229.889084,405.999420 
	C229.821106,413.320618 229.628723,420.144104 229.743393,426.962463 
	C229.796616,430.126495 228.849197,431.464233 225.497589,431.395782 
	C212.592056,431.132202 214.788605,432.580017 214.707016,420.973175 
	C214.564316,400.669647 214.812714,380.362518 214.552017,360.061310 
	C214.488220,355.094360 215.786072,353.333557 220.943634,353.541016 
	C229.855087,353.899414 229.903442,353.597015 229.915771,362.560638 
	C229.935486,376.873596 229.901581,391.186646 229.889084,405.999420 
z"/>
<path fill="#000000" opacity="1.000000" stroke="none" 
	d="
M213.351898,338.416565 
	C212.791138,333.393005 214.393524,329.679230 218.909775,328.126129 
	C222.528351,326.881683 226.316940,327.326050 228.893417,330.600433 
	C231.608429,334.050903 231.931442,337.843414 229.430557,341.696777 
	C227.339371,344.918854 224.224518,345.593353 220.737808,345.287506 
	C216.736969,344.936523 214.551422,342.454346 213.351898,338.416565 
z"/>
<path fill="#000000" opacity="1.000000" stroke="none" 
	d="
M184.494751,330.681671 
	C188.013687,337.774323 185.655945,344.289337 179.514282,345.204163 
	C175.412064,345.815155 171.829819,344.836945 169.793564,340.817200 
	C167.851700,336.983887 168.308945,333.266479 171.254227,330.194641 
	C174.259430,327.060272 178.021164,326.956787 181.852692,328.593903 
	C182.737061,328.971771 183.445801,329.760651 184.494751,330.681671 
z"/>
</svg>